<?xml version="1.0" encoding="utf-8" ?>
<svg baseProfile="tiny" height="31" version="1.2" width="88" xmlns="http://www.w3.org/2000/svg" xmlns:ev="http://www.w3.org/2001/xml-events" xmlns:xlink="http://www.w3.org/1999/xlink"><defs /><rect fill="black" height="31" width="88" x="0" y="0" /><polygon fill="white" points="43,22" /><polygon fill="white" points="60,20 60,21" /><polygon fill="white" points="41,20 41,21" /><polygon fill="white" points="57,19 57,20 56,21 57,20" /><polygon fill="white" points="45,18 45,21" /><polygon fill="white" points="66,17 66,21 66,19 67,18 70,21 70,17 70,19 69,20 67,18 67,17" /><polygon fill="white" points="63,17 63,21" /><polygon fill="white" points="58,17 59,18 59,17" /><polygon fill="white" points="48,17 48,21 48,19 49,18 50,19 50,20 51,21 51,20 53,18 53,17 52,18 52,19 51,20 49,18 49,17" /><polygon fill="white" points="41,17 41,18" /><polygon fill="white" points="37,17 38,18 38,20 37,21 38,20 38,18" /><polygon fill="white" points="34,17 34,21" /><polygon fill="white" points="66,12 65,13 64,13 65,13" /><polygon fill="white" points="37,10" /><polygon fill="white" points="26,10" /><polygon fill="white" points="66,8" /><polygon fill="white" points="63,8 62,9 62,11 62,9" /><polygon fill="white" points="59,8 59,13" /><polygon fill="white" points="54,8 54,13 57,13 55,13 54,12" /><polygon fill="white" points="50,8" /><polygon fill="white" points="47,8 47,13 50,13 51,12 51,11 50,10 48,10 47,9" /><polygon fill="white" points="40,8 40,12 41,13 43,13 44,12 44,8 44,12 43,13 41,13 40,12" /><polygon fill="white" points="37,8" /><polygon fill="white" points="34,8 34,13" /><polygon fill="white" points="24,7" /><polygon fill="white" points="14,6 13,7 11,7 10,8 9,8 8,9 8,10 7,11 7,12 6,13 6,17 7,18 7,19 8,20 8,21 9,21 11,23 18,23 22,19 22,18 23,17 23,13 22,12 22,11 21,10 21,9 20,9 18,7 16,7 15,6" /><polygon fill="white" points="1,2 1,28 23,28 23,26 24,25 24,24 26,22 26,20 27,19 27,12 27,19 26,20 26,21 20,27 18,27 17,28 12,28 11,27 9,27 7,25 6,25 4,23 4,22 3,21 3,20 2,19 2,11 3,10 3,9 4,8 4,7 6,5 7,5 9,3 11,3 12,2 17,2 18,3 20,3 22,5 22,4 23,3 86,3 86,2" /><polygon fill="white" points="87,0" /><polygon fill="white" points="0,0" /></svg>